<svg id="Capa_1" enable-background="new 0 0 512 512" height="512" viewBox="0 0 512 512" width="512" xmlns="http://www.w3.org/2000/svg" xmlns:xlink="http://www.w3.org/1999/xlink"><linearGradient id="SVGID_1_" gradientUnits="userSpaceOnUse" x1="256" x2="256" y1="512" y2="0"><stop offset="0" stop-color="#c3ffe8"/><stop offset=".9973" stop-color="#f0fff4"/></linearGradient><linearGradient id="SVGID_2_" gradientUnits="userSpaceOnUse" x1="256" x2="256" y1="411.383" y2="104.531"><stop offset="0" stop-color="#83f3a9"/><stop offset="1" stop-color="#00b59c"/></linearGradient><g><circle cx="256" cy="256" fill-opacity="0" r="256"/><g fill="url(#SVGID_2_)"><path d="m390.912 165.459v-17.988c0-4.971-4.023-8.994-8.994-8.994h-62.959v-8.994c0-14.879-12.103-26.982-26.982-26.982h-71.953c-14.879 0-26.982 12.103-26.982 26.982v8.994h-62.959c-4.971 0-8.994 4.023-8.994 8.994v17.988c0 4.971 4.023 8.994 8.994 8.994h251.836c4.97 0 8.993-4.023 8.993-8.994zm-179.883-35.977c0-4.963 4.032-8.994 8.994-8.994h71.953c4.963 0 8.994 4.032 8.994 8.994v8.994h-89.941z"/><path d="m372.924 192.441h-233.848v208.064c0 4.971 4.023 8.994 8.994 8.994h215.86c4.971 0 8.994-4.023 8.994-8.994zm-161.895 163.094c0 4.971-4.023 8.994-8.994 8.994s-8.994-4.023-8.994-8.994v-108.529c0-4.971 4.023-8.994 8.994-8.994s8.994 4.023 8.994 8.994zm53.965 0c0 4.971-4.023 8.994-8.994 8.994s-8.994-4.023-8.994-8.994v-108.529c0-4.971 4.023-8.994 8.994-8.994s8.994 4.023 8.994 8.994zm53.965 0c0 4.971-4.023 8.994-8.994 8.994s-8.994-4.023-8.994-8.994v-108.529c0-4.971 4.023-8.994 8.994-8.994s8.994 4.023 8.994 8.994z"/></g></g></svg>