<?xml version="1.0"?>
<svg xmlns="http://www.w3.org/2000/svg" xmlns:xlink="http://www.w3.org/1999/xlink" xmlns:svgjs="http://svgjs.com/svgjs" version="1.1" width="512" height="512" x="0" y="0" viewBox="0 0 24 24" style="enable-background:new 0 0 512 512" xml:space="preserve" class=""><g><path xmlns="http://www.w3.org/2000/svg" d="m21.5 10h-7.5v-7.5c0-.828-.672-1.5-1.5-1.5h-1c-.828 0-1.5.672-1.5 1.5v7.5h-7.5c-.828 0-1.5.672-1.5 1.5v1c0 .828.672 1.5 1.5 1.5h7.5v7.5c0 .828.672 1.5 1.5 1.5h1c.828 0 1.5-.672 1.5-1.5v-7.5h7.5c.828 0 1.5-.672 1.5-1.5v-1c0-.828-.672-1.5-1.5-1.5z" fill="#9c9c9c" data-original="#000000" style="" class=""/></g></svg>
