<?xml version="1.0"?>
<svg xmlns="http://www.w3.org/2000/svg" xmlns:xlink="http://www.w3.org/1999/xlink" xmlns:svgjs="http://svgjs.com/svgjs" version="1.1" width="512" height="512" x="0" y="0" viewBox="0 0 512 512" style="enable-background:new 0 0 512 512" xml:space="preserve"><g><linearGradient xmlns="http://www.w3.org/2000/svg" id="SVGID_1_" gradientUnits="userSpaceOnUse" x1="256" x2="256" y1="512" y2="0"><stop stop-opacity="0" stop-color="#c3ffe8" offset="0.13127413127413126"/><stop stop-opacity="0" stop-color="#e0efe4" offset="0.9973"/></linearGradient><linearGradient xmlns="http://www.w3.org/2000/svg" id="SVGID_2_" gradientUnits="userSpaceOnUse" x1="256" x2="256" y1="105" y2="407"><stop stop-opacity="0.84" stop-color="#f10828" offset="0"/><stop stop-opacity="0.83" stop-color="#ff2900" offset="1"/></linearGradient><g xmlns="http://www.w3.org/2000/svg"><g><circle cx="256" cy="256" fill="url(#SVGID_1_)" r="256" data-original="url(#SVGID_1_)" style=""/></g><g><g><path d="m262.28 107.602c-3.47-3.47-9.091-3.47-12.56 0l-32.927 32.927h78.415zm118.073 50.692h-248.706c-4.91 0-8.882 3.973-8.882 8.882s3.973 8.882 8.882 8.882h10.144l34.371 223.412c.668 4.329 4.398 7.529 8.778 7.529h142.118c4.38 0 8.11-3.201 8.778-7.529l34.371-223.412h10.144c4.91 0 8.882-3.973 8.882-8.882.002-4.909-3.97-8.882-8.88-8.882zm-169.042 177.543c-4.922.743-9.393-2.634-10.131-7.425l-13.67-88.824c-.746-4.849 2.576-9.385 7.425-10.131 4.858-.668 9.386 2.585 10.132 7.425l13.671 88.823c.744 4.849-2.578 9.386-7.427 10.132zm53.571-8.778c0 4.909-3.973 8.882-8.882 8.882s-8.882-3.973-8.882-8.882v-88.823c0-4.91 3.973-8.882 8.882-8.882s8.882 3.973 8.882 8.882zm59.609-87.471-13.67 88.824c-.737 4.784-5.202 8.169-10.131 7.425-4.849-.746-8.171-5.283-7.425-10.132l13.671-88.823c.746-4.84 5.309-8.102 10.131-7.425 4.848.746 8.17 5.283 7.424 10.131z" fill="url(#SVGID_2_)" data-original="url(#SVGID_2_)" style=""/></g></g></g></g></svg>
